<svg width="130" height="26" viewBox="0 0 130 26" fill="none" xmlns="http://www.w3.org/2000/svg">
<g id="starts">
<path id="Star 1" d="M13 0L15.9187 8.98278H25.3637L17.7225 14.5344L20.6412 23.5172L13 17.9656L5.35879 23.5172L8.27747 14.5344L0.636266 8.98278H10.0813L13 0Z" fill="#FF7900"/>
<path id="Star 2" d="M39 0L41.9187 8.98278H51.3637L43.7225 14.5344L46.6412 23.5172L39 17.9656L31.3588 23.5172L34.2775 14.5344L26.6363 8.98278H36.0813L39 0Z" fill="#FF6B00"/>
<path id="Star 3" d="M65 0L67.9187 8.98278H77.3637L69.7225 14.5344L72.6412 23.5172L65 17.9656L57.3588 23.5172L60.2775 14.5344L52.6363 8.98278H62.0813L65 0Z" fill="#FF7900"/>
<path id="Star 4" d="M91 0L93.9187 8.98278H103.364L95.7225 14.5344L98.6412 23.5172L91 17.9656L83.3588 23.5172L86.2775 14.5344L78.6363 8.98278H88.0813L91 0Z" fill="url(#paint0_linear_6_63)"/>
<path id="Star 5" d="M117 0L119.919 8.98278H129.364L121.723 14.5344L124.641 23.5172L117 17.9656L109.359 23.5172L112.277 14.5344L104.636 8.98278H114.081L117 0Z" fill="#D9D9D9"/>
</g>
<defs>
<linearGradient id="paint0_linear_6_63" x1="80" y1="13" x2="102.5" y2="13" gradientUnits="userSpaceOnUse">
<stop stop-color="#FF6B00"/>
<stop offset="0.63" stop-color="white"/>
</linearGradient>
</defs>
</svg>
